<?xml version="1.0" standalone="no"?>
<!DOCTYPE svg PUBLIC "-//W3C//DTD SVG 1.1//EN" "http://www.w3.org/Graphics/SVG/1.1/DTD/svg11.dtd" >
<svg xmlns="http://www.w3.org/2000/svg">
<metadata>
<json>
{
	"fontFamily": "tgbd-icons",
	"majorVersion": 1,
	"minorVersion": 0,
	"designer": "Nicola Ould",
	"fontURL": "http://www.aml-group.com",
	"version": "Version 1.0",
	"fontId": "tgbd-icons",
	"psName": "tgbd-icons",
	"subFamily": "Regular",
	"fullName": "tgbd-icons",
	"description": "Font generated by IcoMoon."
}
</json>
</metadata>
<defs>
<font id="tgbd-icons" horiz-adv-x="512">
<font-face units-per-em="512" ascent="480" descent="-32" />
<missing-glyph horiz-adv-x="512" />
<glyph unicode="&#x20;" d="" horiz-adv-x="256" />
<glyph unicode="&#xe600;" d="M360.572 387.581v61.991l61.993-61.991h-61.993zM422.567 11.216h-333.142v438.356h236.073v-61.991c0-19.321 15.754-35.075 35.075-35.075h61.993v-341.289zM451.176 411.049l-67.123 67.147c-5.528 5.516-12.010 8.204-19.857 8.204h-283.55c-15.464 0-28.052-12.578-28.052-28.047l0.022-455.904c0-15.462 12.566-28.049 28.032-28.049h350.691c15.467 0 28.056 12.587 28.056 28.049v388.767c0 7.811-2.678 14.295-8.217 19.833zM378.73 232.059h-245.482c-2.85 0-5.249-2.403-5.249-5.252v-17.538c0-2.799 2.454-5.265 5.249-5.265h245.482c2.753 0 5.267 2.512 5.267 5.265v17.538c0 2.792-2.468 5.251-5.267 5.251zM256 161.908h-122.752c-2.808 0-5.255-2.447-5.255-5.245v-17.546c0-2.741 2.507-5.245 5.255-5.245h122.752c2.546 0 5.243 2.697 5.243 5.245v17.546c0 2.613-2.651 5.245-5.243 5.245zM127.999 296.945v-17.55c0-2.795 2.449-5.265 5.255-5.265h245.468c2.762 0 5.276 2.514 5.276 5.265v17.55c0 2.808-2.468 5.255-5.276 5.255h-245.468c-2.85 0-5.255-2.405-5.255-5.255z" />
<glyph unicode="&#xe601;" d="M22.185 486.4v-512h467.627v512h-467.627zM397.651 90.453h-283.307v22.187h283.307v-22.187zM397.651 220.16h-283.307v20.48h283.307v-20.48zM397.651 348.16h-283.307v22.187h283.307v-22.187zM114.345 370.346h283.307v-22.187h-283.307v22.187zM114.345 240.64h283.307v-20.48h-283.307v20.48zM114.345 112.64h283.307v-22.187h-283.307v22.187z" />
<glyph unicode="&#xe602;" d="M512.001 486.4c0 0 0.004-38.77-31.332-61.602l-235.503-171.606c0 0-31.338-22.83 0.005-45.657l235.494-171.539c0 0 31.34-22.827 31.329-61.597z" />
<glyph unicode="&#xe603;" d="M129.946 408.32c0-27.213-20.096-49.254-53.145-49.254-31.104 0-51.2 22.041-51.2 49.255 0 27.853 20.761 49.254 52.505 49.254s51.2-21.401 51.84-49.254zM28.211 3.225v316.928h98.509v-316.928h-98.509zM185.677 219.059c0 39.527-1.305 72.576-2.611 101.095h85.555l4.557-44.083h1.945c12.954 20.762 44.723 51.2 97.869 51.2 64.793 0 113.408-43.417 113.408-136.755v-187.315h-98.509v175.642c0 40.832-14.285 68.711-49.92 68.711-27.213 0-43.392-18.79-50.534-36.941-2.611-6.477-3.251-15.539-3.251-24.627v-182.784h-98.509v215.859z" />
<glyph unicode="&#xe604;" d="M355.411 177.553c5.936 6.381 3.651 11.594-5.033 11.594h-36.214c-8.69 0-15.822 7.14-15.822 15.795v155.937c0 8.707-7.122 15.795-15.814 15.795h-53.047c-8.691 0-15.795-7.088-15.795-15.795v-155.937c0-8.654-7.141-15.795-15.822-15.795h-36.25c-8.682 0-10.95-5.212-5.033-11.594l88.641-95.302c5.917-6.38 15.628-6.38 21.536 0l88.653 95.302zM460.112 230.4c0-112.586-91.571-204.172-204.114-204.172-112.549 0-204.114 91.587-204.114 204.172s91.565 204.172 204.114 204.172c112.541 0 204.114-91.587 204.114-204.172zM511.998 230.4c0 141.159-114.845 256-256 256s-256-114.841-256-256 114.845-256 256-256 256 114.841 256 256z" />
<glyph unicode="&#xe605;" d="M371.502 182.869c41.62 28.601 82.717 57.972 123.839 87.303 6.035 4.296 11.129 9.899 16.659 14.899-0.587 1.785-1.168 3.583-1.746 5.375h-189.737c-20.929 61.363-40.858 119.801-60.788 178.253-2.188-0.147-4.38-0.3-6.569-0.449-3.131-6.835-6.9-13.459-9.311-20.548-15.508-45.873-31.404-91.638-45.63-137.912-4.411-14.358-11.379-17.859-25.388-17.63-49.869 0.808-99.748 0.481-149.627 0.14-7.742-0.053-15.471-2.42-23.204-3.712v-7.984c50.49-35.435 100.984-70.871 152.043-106.704-10.050-30.594-19.755-60.132-29.462-89.67-9.707-29.527-19.432-59.048-29.153-88.572 2.111-1.183 4.209-2.363 6.308-3.56 7.163 4.221 14.667 7.96 21.439 12.733 39.634 27.986 79.536 55.627 118.364 84.7 12.549 9.401 20.835 8.25 32.715-0.557 38.987-28.873 78.76-56.68 118.4-84.647 6.675-4.714 14.244-8.163 21.397-12.2 1.469 1.017 2.923 2.036 4.386 3.060-2.297 9.271-4.007 18.753-7.011 27.793-15.050 45.324-30.009 90.687-46 135.677-4.116 11.57-1.773 17.44 8.076 24.212z" />
<glyph unicode="&#xe606;" d="M255.987 0.123c-127.204 0.024-230.742 103.694-230.265 230.545 0.491 127.559 104.22 230.933 230.801 230.009 127.586-0.93 229.313-102.805 229.756-230.036 0.42-126.892-103.124-230.55-230.292-230.518zM255.822 486.4c-141.030-0.198-256.021-115.347-255.824-256.181 0.198-141.020 115.361-256.017 256.178-255.819 141.018 0.188 256.013 115.352 255.822 256.173-0.198 141.030-115.349 256.026-256.176 255.827zM184.811 109.087v242.613c68.232-40.51 135.419-80.401 204.292-121.291-68.806-40.863-135.978-80.752-204.292-121.322zM256.445 435.195c-112.413 0.387-204.406-90.964-205.244-203.839-0.833-112.633 91.261-205.358 204.346-205.754 112.425-0.389 204.406 90.966 205.244 203.837 0.838 112.635-91.259 205.36-204.346 205.755z" />
<glyph unicode="&#xe607;" d="M486.399 486.4v-232.726c0 0 0.038-3.524 2.886-5.601l21.43-15.601c0 0 2.867-2.075 0.017-4.151l-21.446-15.596c0 0-2.886-2.075-2.886-5.599v-232.726h25.6v512h-25.601z" />
<glyph unicode="&#xe608;" d="M489.313-25.6h-466.63v512h466.63v-512zM44.078-4.207h423.842v469.212h-423.842v-469.212zM114.782 369.761h282.431v-21.395h-282.431v21.395zM114.782 241.087h282.431v-21.395h-282.431v21.395zM114.782 112.424h282.431v-21.393h-282.431v21.393z" />
<glyph unicode="&#xe609;" d="M133.333 399.242v72.016c0 4.735-3.837 8.563-8.566 8.563-4.722 0-8.552-3.828-8.552-8.563v-72.016c0-4.729 3.83-8.566 8.552-8.566 4.729 0 8.566 3.837 8.566 8.566zM307.575 399.242v72.016c0 4.735-3.828 8.563-8.56 8.563-4.729 0-8.564-3.828-8.564-8.563v-72.016c0-4.729 3.835-8.566 8.564-8.566 4.733 0 8.56 3.837 8.56 8.566zM236.345 73.852v140.642c0 17.084-11.214 20.654-20.659 20.654h-33.681c-12.769 0-19.141-9.688-19.141-19.125 0-9.445 6.371-19.132 19.141-19.132h13.020v-123.038c0-14.556 8.673-21.959 20.661-21.959s20.659 7.404 20.659 21.959zM396.031 23.233c0-7.982-6.518-14.491-14.483-14.5h-339.236c-8.022 0.009-14.541 6.518-14.547 14.5v245.377h338.469l-44.565-71.581-6.755-9.695c0 0-0.367-83.050-0.396-90.967-0.026-7.917 6.982-3.692 6.982-3.692l74.532 40.146v-109.589zM391.349 142.434l-44.784-23.699-19.603 11.214 0.244 51.353 64.144-38.87zM498.837 341.381l-41.849 27.606c-11.341 6.859-27.438 3.589-29.032-8.173l-0.627-4.677-3.545 0.483v43.611c0 23.347-18.911 42.231-42.238 42.247h-62.868v-31.577c8.421-6.108 13.947-15.954 13.947-27.149 0-18.567-15.053-33.616-33.601-33.616-18.572 0-33.616 15.048-33.616 33.616 0 11.196 5.526 21.043 13.938 27.149v31.579h-134.902v-31.577c8.404-6.108 13.939-15.954 13.939-27.149 0-18.567-15.053-33.616-33.608-33.616s-33.616 15.048-33.616 33.616c0 11.195 5.537 21.043 13.947 27.15v31.576h-62.834c-23.352-0.017-42.247-18.901-42.273-42.248v-83.118h396.43l-12.923-20.75h-383.507v-273.13c0.025-23.327 18.913-42.231 42.273-42.255h339.277c23.327 0.024 42.238 18.928 42.238 42.255v152.071l78.752 134.177c-0.050-0.026-0.065-0.060-0.115-0.084-0.007-0.008 0.545 4.038 0.545 4.038l1.755-0.244-2.185-3.711c17.384 9.629 7.588 25.050-3.702 31.901z" />
<glyph unicode="&#xe60a;" d="M329.464 153.6c3.668 0 10.161 3.335 10.161 9.896v241.793c0 3.664-3.601 7.725-10.161 7.725h-322.048c-3.661 0-7.417-1.166-7.417-7.725v-241.793c0-3.663 0.86-9.896 7.417-9.896h103.665c0.838 0 20.694 0.683 32.268-16.024l22.084-31.438c0.188-0.256 0.493-0.36 0.8-0.63 0.181 0.219 0.396 0.61 0.638 0.974l20.842 30.695c0.463 0.702 11.624 16.421 32.065 16.421h109.686zM495.068 285.013h-140.083v-121.518c0-17.928-15.696-23.548-25.522-23.548h-78.585v-38.144c0 0 0.464-16.469 16.756-16.469h70.286c0 0 13.315 0.091 20.938-10.841l17.139-24.531c0 0 3.796-5.445 7.489 0.104l14.546 21.786c0 0 9.014 13.483 25.306 13.483h71.731c0 0 16.93 0.178 16.93 16.469v167.385c0 0-0.645 15.826-16.93 15.826z" />
<glyph unicode="&#xe60b;" d="M218.464 66.136l293.533 276.735-140.761 126.334-288.108-275.475zM0-8.405l178.262 35.385-132.677 127.582z" />
<glyph unicode="&#xe60c;" d="M80.231 282.569c0 61.348 52.976 111.225 118.105 111.225 65.142 0 118.119-49.877 118.119-111.225 0-61.319-52.976-111.225-118.118-111.225-65.128 0-118.105 49.908-118.105 111.225zM499.092 61.452l-132.226 123.044c18.786 28.531 29.805 62.044 29.805 98.076 0 103.144-88.791 186.765-198.337 186.765-109.531-0.002-198.337-83.624-198.337-186.768 0-103.115 88.806-186.736 198.337-186.736 39.784 0 76.771 11.123 107.822 30.151l131.832-122.723c17.091-15.873 44.607-15.7 61.464 0.346 16.872 16.077 16.7 41.971-0.36 57.844z" />
<glyph unicode="&#xe60d;" d="M256.027 486.4c-141.167 0-256.029-114.841-256.029-256 0-141.107 114.862-256 256.029-256 141.142 0 255.971 114.893 255.971 256 0 141.159-114.829 256-255.971 256zM402.178 245.584l-99.481-92.314c-12.373-11.493-22.482-7.086-22.482 9.813v21.212c0 16.901-13.834 30.671-30.7 30.671 0 0-82.716 17.858-135.028-94.797 0 0-8.146-18.382-12.674 0.45-17.252 201.8 147.7 197.393 147.7 197.393 25.276 0 30.7 13.822 30.7 30.671v21.202c0 16.856 10.108 21.263 22.482 9.769l99.481-92.259c12.401-11.548 12.401-30.317 0.002-41.811z" />
<glyph unicode="&#xe60e;" d="M464.498 126.366c0-14.108-9.911-25.583-22.079-25.583h-372.876c-12.147 0-22.055 11.478-22.055 25.583v207.884l139.088-139.066c2.835-3.041 28.578-29.592 66.26-30.283 0.507-0.046 1.014-0.046 1.523-0.046 23.462 0 45.332 10.003 65.016 29.686l144.714 144.69c0.231-1.522 0.413-3.135 0.413-4.748v-208.116zM417.69 360.016l-131.876-131.876c-10.716-10.694-21.364-16.039-31.827-15.763-18.023 0.185-32.589 15.12-33.21 15.763l-131.897 131.876h328.81zM442.419 407.494h-372.876c-38.35 0-69.545-32.727-69.545-73.013v-208.113c0-40.286 31.195-73.060 69.545-73.060h372.876c38.351 0 69.579 32.773 69.579 73.060v208.111c0 40.288-31.228 73.014-69.579 73.014z" />
<glyph unicode="&#xe60f;" d="M272.341 141.41c-8.81 9.3-15.002 20.084-18.772 31.469l63.555-2.748 1.721 64.945-60.437 2.667c4.25 8.392 9.907 16.222 17.089 23.050 33.85 32.1 87.311 30.659 119.388-3.171 18.751-19.777 25.976-46.247 22.052-71.245l95.062-86.036v235.324c0 19.316-15.813 35.12-35.118 35.12l-284.197-0.341v29.935c0 16.269-15.798 29.594-35.112 29.594h-122.46c-19.313 0-35.113-13.324-35.113-29.594v-334.433c0-19.316 15.8-35.12 35.113-35.12h416.057l-96.13 87.016c-28.839-7.514-60.769 0.438-82.697 23.567z" />
<glyph unicode="&#xe610;" d="M511.998-8.534h-239.925c0 0-2.349 0.252-3.731-1.644l-10.396-14.138c0 0-1.382-1.84-2.765 0.058l-10.39 14.044c0 0-1.382 1.68-3.731 1.68h-241.064v-17.067h512v17.067z" />
<glyph unicode="&#xe611;" d="M103.547 201.356h-23.859v-59.585h23.955c18.871 0 32.028 11.796 32.028 29.836 0 17.87-13.156 29.749-32.123 29.749zM103.547 152.939h-10.977v37.246h11.073c12.338 0 18.87-8.125 18.87-18.579 0-10.185-6.986-18.668-18.966-18.668zM149.366 141.769h42.822v11.166h-29.94v13.578h29.307v11.168h-29.307v12.505h29.94v11.168h-42.822zM246.174 172.503c5.715 1.164 10.434 6.253 10.434 13.667 0 7.948-5.9 15.186-17.425 15.186h-31.843v-59.585h32.845c11.612 0 17.606 7.149 17.606 16.173 0 7.412-5.088 13.578-11.618 14.56zM220.225 190.188h16.15c4.357 0 7.077-2.589 7.077-6.252 0-3.837-2.722-6.252-7.077-6.252h-16.15v12.503zM236.921 152.939h-16.697v13.578h16.697c4.987 0 7.713-3.038 7.713-6.791-0.001-4.286-2.905-6.788-7.713-6.788zM287.455 201.356l-23.32-59.585h14.608l3.81 10.096h25.954l3.81-10.096h14.611l-23.32 59.585h-16.15zM286.096 163.032l9.436 25.636 9.433-25.636h-18.869zM327.555 190.188h17.693v-48.416h12.974v48.416h17.603v11.168h-48.269zM432.075 152.939h-29.937v13.578h29.303v11.165h-29.303v12.505h29.937v11.168h-42.824v-59.585h42.824zM510.609 187.711l-39.18 28.354v138.711c0 1.855-1.553 3.365-3.466 3.365h-42.034c0 0-5.176-0.094-4.557-6.762l43.117 0.010-0.091-136.899c0.010-1.070 0.524-2.063 1.396-2.7l36.946-26.783-36.861-26.706c-0.88-0.644-1.392-1.64-1.392-2.705v-46.2l-43.12 0.029c-0.627-6.676 4.553-6.772 4.553-6.772h42.041c1.913 0 3.466 1.5 3.466 3.361v47.897l39.187 28.402c0.88 0.633 1.386 1.63 1.386 2.695 0.001 1.068-0.509 2.058-1.391 2.7zM47.519 109.476l0.086 136.836c-0.005 1.065-0.519 2.058-1.392 2.695l-36.944 26.785 36.857 26.711c0.877 0.64 1.395 1.64 1.395 2.702v46.191l43.119-0.021c0.624 6.678-4.555 6.772-4.555 6.772h-42.035c-1.915 0-3.471-1.502-3.471-3.361v-47.896l-39.184-28.402c-0.886-0.633-1.393-1.632-1.393-2.696 0-1.067 0.515-2.062 1.398-2.702l39.176-28.353v-138.713c0-1.853 1.556-3.369 3.471-3.369h42.028c0 0 5.181 0.098 4.557 6.769l-43.112 0.053zM114.499 319.163h-34.963v-8.088h12.817v-35.069h9.395v35.069h12.751zM131.071 294.187h20.7v-18.18h9.4v43.16h-9.4v-16.954h-20.7v16.954h-9.334v-43.16h9.334zM202.064 284.095h-21.689v9.835h21.227v8.083h-21.227v9.063h21.689v8.088h-31.018v-43.156h31.018zM247.412 275.231c7.888 0 14.133 3.169 18.602 8.086v16.562h-20.898v-8.019h11.562v-5.175c-1.773-1.619-5.385-3.299-9.269-3.299-8.018 0-13.8 6.014-13.8 14.168 0 8.151 5.782 14.168 13.8 14.168 4.6 0 8.349-2.59 10.382-5.628l7.69 4.142c-3.284 5.11-9.002 9.636-18.072 9.636-12.88 0-23.395-8.67-23.395-22.318 0.001-13.594 10.517-22.323 23.397-22.323zM284.036 291.341h6.837l8.61-15.334h10.776l-9.923 16.437c4.733 1.098 9.656 5.234 9.656 12.807 0 8.023-5.647 13.913-14.786 13.913h-20.504v-43.158h9.334v15.336zM284.036 311.077h9.86c3.676 0 6.506-2.203 6.506-5.761 0-3.687-2.829-5.887-6.506-5.887h-9.86v11.648zM349.242 284.095h-21.69v9.835h21.229v8.083h-21.229v9.063h21.69v8.088h-31.021v-43.156h31.020zM381.788 319.163h-11.697l-16.892-43.161h10.583l2.757 7.315h18.797l2.763-7.315h10.576l-16.886 43.161zM369.099 291.406l6.837 18.57 6.834-18.57h-13.671zM409.928 276.007h9.397v35.069h12.75v8.088h-34.966v-8.088h12.819zM111.949 250.639c0 7.298-5.082 11.816-12.995 11.816h-19.35v-46.372h19.772c8.406 0 13.488 4.796 13.488 12.515 0 5.492-4.166 10.639-9.178 11.402 4.24 0.834 8.264 4.796 8.264 10.639zM108.629 228.874c0-5.632-3.672-9.177-9.886-9.177h-15.116v18.352h15.114c6.569 0 9.889-4.447 9.889-9.175zM98.46 241.669h-14.832v17.172h14.831c6.073 0 9.252-3.888 9.252-8.618 0.001-4.798-3.178-8.554-9.25-8.554zM165.755 233.882v28.575h-4.095v-28.508c0-9.384-5.018-15.084-14.269-15.084s-14.262 5.701-14.262 15.084v28.508h-4.097v-28.575c0-11.406 6.287-18.635 18.362-18.635 12.147 0 18.362 7.161 18.362 18.635zM214.827 228.388c0 17.31-28.25 10.778-28.25 22.665 0 5.004 4.731 8.557 11.017 8.557 5.299 0 10.099-1.813 13.493-5.846l2.685 2.925c-3.603 4.098-8.972 6.535-15.964 6.535-8.546 0-15.466-4.798-15.466-12.38 0-16.203 28.25-9.107 28.25-22.731 0-3.969-2.75-9.249-12.358-9.249-6.78 0-11.725 3.335-14.76 6.743l-2.613-2.994c3.601-4.238 9.462-7.365 17.231-7.365 12.712 0 16.736 7.158 16.736 13.138zM230.494 262.458h4.024v-46.375h-4.024v46.375zM256.338 262.457h-4.095v-46.377h4.025v39.848l29.663-39.848h3.952v46.377h-4.019v-39.283zM337.478 258.841v3.616h-29.88v-46.379h29.88v3.618h-25.853v18.352h25.356v3.62h-25.356v17.173zM356.534 251.054c0 5.009 4.733 8.557 11.017 8.557 5.298 0 10.1-1.813 13.49-5.845l2.683 2.922c-3.603 4.1-8.97 6.538-15.961 6.538-8.55 0-15.469-4.798-15.469-12.38 0-16.196 28.254-9.107 28.254-22.731 0-3.969-2.753-9.249-12.36-9.249-6.777 0-11.726 3.335-14.76 6.74l-2.613-2.99c3.599-4.236 9.46-7.368 17.234-7.368 12.709 0 16.734 7.161 16.734 13.142-0.002 17.309-28.248 10.778-28.248 22.665zM415.215 218.864c-6.784 0-11.726 3.338-14.76 6.74l-2.616-2.99c3.599-4.236 9.46-7.368 17.234-7.368 12.709 0 16.74 7.161 16.74 13.142 0 17.31-28.25 10.778-28.25 22.665 0 5.009 4.729 8.552 11.013 8.552 5.298 0 10.103-1.804 13.493-5.84l2.68 2.925c-3.599 4.098-8.967 6.533-15.961 6.533-8.547 0-15.466-4.794-15.466-12.376 0-16.196 28.254-9.107 28.254-22.734-0.002-3.968-2.762-9.247-12.361-9.247z" />
<glyph unicode="&#xe612;" d="M34.678 188.030h-34.651v-86.536h34.788c27.405 0 46.514 17.132 46.514 43.332 0 25.952-19.108 43.204-46.651 43.204zM34.678 117.714h-15.944v54.093h16.082c17.92 0 27.405-11.8 27.405-26.983 0-14.793-10.145-27.111-27.544-27.111zM101.221 101.49h62.193v16.219h-43.483v19.719h42.562v16.22h-42.563v18.163h43.483v16.22h-62.192zM241.817 146.125c8.299 1.69 15.155 9.081 15.155 19.849 0 11.544-8.569 22.057-25.306 22.057h-46.245v-86.536h47.7c16.863 0 25.569 10.384 25.569 23.487 0 10.762-7.388 19.719-16.872 21.144zM204.13 171.806h23.454c6.328 0 10.28-3.758 10.28-9.078 0-5.574-3.952-9.079-10.28-9.079h-23.454v18.157zM228.38 117.714h-24.249v19.721h24.249c7.242 0 11.199-4.413 11.199-9.863 0-6.224-4.215-9.858-11.199-9.858zM301.769 188.030l-33.867-86.536h21.214l5.533 14.663h37.692l5.533-14.663h21.219l-33.869 86.536h-23.454zM299.795 132.373l13.704 37.229 13.701-37.229h-27.406zM360.007 171.81h25.697v-70.317h18.841v70.317h25.566v16.22h-70.105zM511.805 117.714h-43.478v19.719h42.558v16.215h-42.558v18.159h43.478v16.224h-62.195v-86.536h62.195zM50.584 359.124h-50.779v-11.747h18.614v-50.932h13.645v50.932h18.519zM74.65 322.849h30.064v-26.404h13.65v62.683h-13.65v-24.62h-30.064v24.62h-13.556v-62.683h13.556zM177.756 308.192h-31.498v14.285h30.829v11.74h-30.829v13.16h31.498v11.747h-45.051v-62.679h45.051zM243.617 295.318c11.457 0 20.526 4.605 27.018 11.744v24.052h-30.35v-11.648h16.794v-7.516c-2.576-2.352-7.822-4.791-13.46-4.791-11.644 0-20.042 8.737-20.042 20.579 0 11.837 8.397 20.577 20.041 20.577 6.681 0 12.124-3.763 15.079-8.175l11.168 6.014c-4.769 7.421-13.075 13.995-26.247 13.995-18.705 0-33.976-12.59-33.976-32.411-0.004-19.741 15.268-32.42 33.975-32.42zM296.803 318.715h9.93l12.503-22.271h15.652l-14.411 23.871c6.875 1.594 14.026 7.603 14.026 18.599 0 11.651-8.202 20.207-21.475 20.207h-29.778v-62.679h13.555v22.272zM296.803 347.379h14.32c5.34 0 9.45-3.199 9.45-8.368 0-5.354-4.11-8.548-9.45-8.548h-14.32v16.917zM391.504 308.192h-31.502v14.285h30.834v11.74h-30.834v13.16h31.502v11.747h-45.051v-62.679h45.051zM438.774 359.124h-16.988l-24.534-62.684h15.37l4.004 10.624h27.298l4.014-10.624h15.361l-24.526 62.684zM420.344 318.811l9.928 26.971 9.925-26.971h-19.852zM479.642 296.445h13.647v50.932h18.517v11.747h-50.782v-11.747h18.618zM46.879 259.605c0 10.598-7.382 17.16-18.872 17.16h-28.102v-67.349h28.716c12.206 0 19.589 6.965 19.589 18.176 0 7.976-6.052 15.452-13.331 16.558 6.156 1.215 11.999 6.965 11.999 15.454zM42.059 227.996c0-8.179-5.334-13.329-14.36-13.329h-21.951v26.653h21.951c9.537 0 14.36-6.459 14.36-13.324zM27.288 246.576h-21.54v24.939h21.541c8.819 0 13.436-5.645 13.436-12.518-0.002-6.966-4.62-12.421-13.438-12.421zM125.022 235.266v41.499h-5.948v-41.402c0-13.628-7.289-21.907-20.724-21.907-13.436 0-20.716 8.279-20.716 21.907v41.402h-5.953v-41.5c0-16.565 9.13-27.065 26.666-27.065 17.648 0 26.674 10.402 26.674 27.065zM196.292 227.289c0 25.139-41.029 15.654-41.029 32.917 0 7.267 6.871 12.428 15.999 12.428 7.697 0 14.667-2.634 19.596-8.49l3.898 4.248c-5.232 5.951-13.030 9.491-23.187 9.491-12.411 0-22.462-6.966-22.462-17.979 0-23.533 41.029-13.226 41.029-33.014 0-5.765-3.994-13.431-17.949-13.431-9.847 0-17.028 4.844-21.435 9.793l-3.796-4.347c5.231-6.154 13.742-10.697 25.025-10.697 18.466 0.002 24.311 10.399 24.311 19.084zM219.046 276.769h5.845v-67.352h-5.845v67.352zM256.579 276.765h-5.946v-67.353h5.843v57.872l43.082-57.872h5.743v67.353h-5.839v-57.050zM374.421 271.515v5.253h-43.396v-67.357h43.395v5.255h-37.546v26.653h36.827v5.256h-36.827v24.94zM402.098 260.205c0 7.275 6.875 12.428 16 12.428 7.694 0 14.669-2.634 19.591-8.49l3.897 4.244c-5.231 5.954-13.027 9.494-23.178 9.494-12.416 0-22.466-6.966-22.466-17.979 0-23.523 41.031-13.226 41.031-33.014 0-5.765-3.998-13.431-17.95-13.431-9.842 0-17.031 4.844-21.438 9.788l-3.796-4.342c5.228-6.152 13.738-10.702 25.029-10.702 18.457 0 24.301 10.402 24.301 19.088 0.003 25.141-41.019 15.655-41.019 32.918zM487.32 213.456c-9.851 0-17.031 4.849-21.438 9.788l-3.8-4.342c5.228-6.152 13.738-10.702 25.029-10.702 18.457 0 24.312 10.402 24.312 19.088 0 25.139-41.029 15.654-41.029 32.916 0 7.276 6.87 12.42 15.995 12.42 7.692 0 14.674-2.622 19.596-8.482l3.891 4.248c-5.228 5.951-13.022 9.487-23.178 9.487-12.413 0-22.463-6.963-22.463-17.976 0-23.523 41.034-13.226 41.034-33.019 0.003-5.759-4.005-13.425-17.947-13.425z" />
<glyph unicode="&#xe613;" d="M279.533 454.4c0 0-100.478 0-133.97 0-60.060 0-116.585-45.503-116.585-98.211 0-53.863 40.941-97.333 102.044-97.333 4.249 0 8.378 0.085 12.421 0.376-3.965-7.593-6.801-16.144-6.801-25.021 0-14.969 8.052-27.105 18.234-37.012-7.693 0-15.121-0.224-23.226-0.224-74.391 0.001-131.65-47.379-131.65-96.51 0-48.389 62.771-78.657 137.167-78.657 84.812 0 131.653 48.122 131.653 96.514 0 38.8-11.448 62.036-46.843 87.067-12.108 8.572-35.265 29.418-35.265 41.672 0 14.36 4.098 21.434 25.714 38.323 22.156 17.312 37.836 41.651 37.836 69.958 0 33.703-15.010 66.549-43.186 77.386h42.477l29.98 21.672zM232.74 126.671c1.063-4.486 1.642-9.103 1.642-13.814 0-39.1-25.196-69.655-97.487-69.655-51.421 0-88.558 32.552-88.558 71.65 0 38.321 46.063 70.222 97.482 69.666 12-0.127 23.184-2.058 33.335-5.345 27.913-19.413 47.938-30.381 53.586-52.502zM150.409 272.512c-34.519 1.032-67.318 38.613-73.276 83.93-5.958 45.333 17.185 80.021 51.694 78.995 34.505-1.037 67.319-37.407 73.279-82.729 5.953-45.33-17.195-81.229-51.697-80.196zM416 358.4v96h-32v-96h-96v-32h96v-96h32v96h96v32z" />
<glyph unicode="&#xe615;" d="M287.935-25.6h-95.935v256h-64v88.225l64 0.029-0.104 51.976c0 71.976 19.517 115.77 104.299 115.77h70.588v-88.242h-44.115c-33.016 0-34.603-12.328-34.603-35.342l-0.131-44.162h79.345l-9.352-88.225-69.927-0.029-0.065-256z" />
<glyph unicode="&#xe617;" d="M512 389.191c-18.838-8.354-39.082-14.001-60.33-16.54 21.686 13 38.343 33.585 46.186 58.115-20.298-12.039-42.778-20.78-66.705-25.49-19.16 20.415-46.461 33.17-76.673 33.17-58.011 0-105.044-47.029-105.044-105.039 0-8.233 0.929-16.25 2.72-23.939-87.3 4.382-164.701 46.2-216.509 109.753-9.042-15.514-14.223-33.558-14.223-52.809 0-36.444 18.544-68.596 46.73-87.433-17.219 0.546-33.416 5.271-47.577 13.139-0.010-0.438-0.010-0.878-0.010-1.321 0-50.894 36.209-93.348 84.261-103-8.813-2.4-18.094-3.686-27.674-3.686-6.769 0-13.349 0.66-19.764 1.886 13.368-41.73 52.16-72.103 98.126-72.948-35.95-28.175-81.243-44.967-130.458-44.967-8.479 0-16.84 0.497-25.058 1.47 46.486-29.805 101.701-47.197 161.021-47.197 193.211 0 298.868 160.062 298.868 298.872 0 4.554-0.103 9.084-0.305 13.59 20.528 14.81 38.336 33.31 52.418 54.374z" />
<glyph unicode="&#xe619;" d="M426.67 486.4h-341.327c-46.938 0-85.343-38.406-85.343-85.344v-341.314c0-46.967 38.406-85.342 85.344-85.342h341.326c46.938 0 85.33 38.374 85.33 85.342v341.314c0 46.938-38.392 85.344-85.33 85.344zM139.472 70.776c-23.985 0-43.472 19.346-43.472 43.314 0 23.842 19.486 43.406 43.472 43.406 24.079 0 43.53-19.564 43.53-43.406-0.001-23.968-19.452-43.314-43.53-43.314zM248.734 70.402c0 40.905-15.904 79.409-44.73 108.222-28.857 28.875-67.188 44.813-107.952 44.813v62.593c118.826 0 215.563-96.721 215.563-215.627l-62.881-0.001zM359.814 70.402c0 145.531-118.329 263.97-263.688 263.97v62.624c180.001 0 326.473-146.562 326.473-326.596l-62.785 0.002z" />
<glyph unicode="&#xe61a;" d="M416 422.4h-320c-52.8 0-96-43.2-96-96v-192c0-52.8 43.2-96 96-96h320c52.8 0 96 43.2 96 96v192c0 52.8-43.2 96-96 96zM192 102.4v256l160-128-160-128z" />
<glyph unicode="&#xe61c;" d="M0 332.215l20.797-27.272c0 0 42.885 33.804 57.18 16.901 14.294-16.901 68.868-220.978 87.085-258.623 15.9-33.015 59.759-76.66 107.857-45.491 48.068 31.17 207.92 167.643 236.533 328.808 28.59 161.113-192.36 127.363-215.765-13.005 58.495 35.118 89.718-14.269 59.785-70.186-29.879-55.862-57.18-92.296-71.476-92.296-14.269 0-25.245 37.384-41.594 102.723-16.899 67.551-16.796 189.23-87.058 175.435-66.259-13.006-153.344-116.994-153.344-116.994z" />
</font>
</defs>
</svg>
